<?xml version="1.0" standalone="no"?>
<!DOCTYPE svg PUBLIC "-//W3C//DTD SVG 20010904//EN"
 "http://www.w3.org/TR/2001/REC-SVG-20010904/DTD/svg10.dtd">
<svg version="1.0" xmlns="http://www.w3.org/2000/svg"
 width="1080.0000pt" height="1080.0000pt" viewBox="0 0 1080.000000 1080.000000"
 >

<g transform="translate(0.000000,1080.000000) scale(0.100000,-0.100000)"
fill="#ffffff" stroke="none">
<path d="M5981 8238 c-10 -24 -21 -53 -25 -65 -9 -28 -18 -29 -41 -3 -23 25
-47 26 -68 2 -21 -23 -21 -58 -1 -138 18 -73 16 -110 -6 -107 -8 1 -58 11
-110 22 -120 26 -338 29 -461 5 -174 -33 -324 -92 -455 -180 -45 -30 -84 -54
-87 -54 -2 0 -17 19 -33 43 -26 39 -28 49 -29 150 0 102 -2 110 -24 128 -31
26 -57 24 -87 -6 l-24 -24 -24 37 c-13 20 -38 50 -54 66 -30 28 -32 28 -57 12
-14 -9 -25 -19 -25 -23 0 -3 20 -31 45 -61 25 -30 45 -58 45 -63 0 -19 -27 5
-63 56 -47 68 -72 72 -116 18 -35 -42 -38 -59 -15 -84 17 -19 11 -39 -12 -39
-22 0 -16 -39 12 -74 14 -17 42 -58 61 -91 20 -33 65 -109 100 -169 l64 -109
-29 -41 c-71 -99 -138 -268 -174 -434 -30 -144 -30 -341 1 -491 51 -246 175
-466 363 -647 256 -245 639 -364 1001 -309 530 80 923 462 1021 994 74 394
-91 858 -397 1122 -44 38 -73 57 -79 51 -5 -5 -14 -29 -19 -52 l-10 -43 89
-86 c171 -165 274 -366 317 -615 8 -49 15 -106 15 -127 0 -45 -1 -45 -96 -28
-54 9 -72 8 -136 -10 -98 -28 -138 -26 -228 9 -41 17 -82 30 -91 30 -9 0 -41
-11 -70 -24 -90 -40 -99 -41 -99 -12 0 42 35 188 95 391 30 105 76 262 101
350 71 249 106 359 119 375 33 40 46 82 44 148 -2 37 3 77 9 89 20 37 15 72
-13 85 -32 15 -45 2 -70 -67 -21 -61 -35 -78 -35 -44 0 13 14 48 30 78 23 41
27 58 19 72 -21 39 -89 32 -89 -10 0 -10 -5 -7 -13 9 -8 16 -23 26 -40 28 -24
3 -30 -2 -46 -40z m73 -67 c-9 -23 -19 -39 -22 -37 -3 3 3 24 13 46 24 52 31
45 9 -9z m-50 -97 c64 12 136 -30 136 -79 0 -13 -16 -42 -35 -65 -19 -23 -38
-54 -41 -69 -5 -25 -86 -298 -157 -531 -19 -63 -44 -149 -56 -190 -12 -41 -35
-123 -51 -181 -25 -88 -30 -124 -29 -210 0 -57 4 -125 8 -151 8 -47 8 -48 -18
-42 -14 4 -51 15 -81 25 -66 23 -102 24 -142 3 -58 -30 -130 -30 -212 0 l-75
28 -46 -21 c-25 -11 -60 -23 -78 -26 l-32 -6 -43 104 c-24 58 -102 208 -174
333 -72 126 -161 283 -198 349 -37 66 -89 158 -116 205 -28 47 -58 105 -69
130 -10 25 -35 62 -56 83 -39 40 -55 82 -44 117 4 12 1 28 -7 38 -12 15 -11
16 4 3 15 -11 23 -11 50 0 17 7 51 12 74 10 40 -2 43 0 48 26 2 15 3 -22 1
-84 l-4 -112 32 -34 c18 -18 53 -69 78 -113 51 -88 171 -297 274 -479 38 -66
83 -135 101 -152 39 -40 76 -43 179 -13 38 11 86 20 105 20 39 0 306 88 345
114 32 21 45 50 90 206 52 183 133 445 162 525 34 95 38 136 19 192 -9 25 -16
60 -16 77 l0 31 21 -34 c18 -29 23 -32 53 -27z m-274 -229 c41 -9 79 -21 83
-25 5 -4 -16 -87 -47 -183 -31 -96 -73 -236 -93 -312 -35 -130 -39 -139 -68
-151 -37 -15 -41 -12 -22 18 24 36 38 132 27 186 -13 69 -47 142 -83 180 -53
56 -172 110 -282 127 -52 9 -107 20 -121 25 -14 6 -35 10 -46 10 -18 0 -20 -5
-16 -38 l6 -38 -54 4 -54 4 0 -31 c0 -34 24 -55 78 -66 17 -4 32 -8 32 -10 0
-2 -11 -20 -24 -40 -68 -99 -40 -262 65 -387 21 -26 39 -49 39 -52 0 -3 -13
-6 -29 -6 -28 0 -34 9 -97 128 -37 70 -78 145 -92 166 -13 22 -55 93 -93 158
l-68 118 47 35 c105 77 307 159 467 189 106 20 342 15 445 -9z m-304 -334 c46
-21 77 -63 96 -134 11 -41 10 -57 -5 -113 -28 -110 -89 -164 -182 -164 -59 0
-103 19 -148 64 -115 114 -112 254 7 338 57 41 150 45 232 9z m-867 -153 c8
-13 48 -81 89 -153 41 -71 98 -170 127 -220 28 -49 66 -115 83 -146 l32 -56
-38 10 c-32 9 -48 6 -104 -16 -80 -33 -89 -33 -200 -5 -88 21 -89 21 -126 2
-20 -10 -41 -20 -46 -23 -19 -8 2 221 29 316 35 125 116 313 135 313 3 0 12
-10 19 -22z m1571 -678 c104 -36 127 -37 229 -5 82 26 82 26 199 0 17 -4 22
-12 22 -39 0 -53 -19 -98 -39 -90 -112 47 -108 47 -185 23 -90 -27 -161 -22
-236 16 -65 33 -111 35 -165 8 -22 -11 -50 -24 -62 -27 -22 -7 -23 -5 -23 48
0 51 2 56 23 57 12 0 42 8 67 19 61 25 73 24 170 -10z m-1614 -5 c96 -31 143
-31 220 -4 75 27 121 33 164 22 29 -8 41 -20 72 -76 35 -64 35 -67 15 -67 -12
0 -57 14 -99 32 l-77 31 -81 -32 c-76 -30 -85 -31 -168 -25 -71 5 -90 4 -100
-8 -7 -9 -10 -22 -6 -31 6 -15 131 -67 162 -67 9 0 55 13 102 29 l85 29 70
-30 c120 -51 178 -48 326 14 l46 19 59 -24 c98 -41 117 -42 208 -12 l82 27 73
-26 c98 -35 150 -34 264 9 l94 35 67 -31 c89 -42 161 -48 249 -20 65 20 69 20
132 3 36 -9 65 -22 65 -28 0 -18 -29 -96 -41 -110 -8 -10 -24 -7 -77 13 -65
24 -68 24 -118 9 -78 -25 -189 -21 -268 9 -82 31 -89 31 -181 -1 -76 -26 -102
-27 -207 -9 -31 6 -38 4 -48 -14 -17 -33 -4 -57 44 -80 58 -29 129 -27 223 6
76 26 77 26 122 8 129 -49 205 -54 309 -18 39 13 49 12 95 -3 29 -9 53 -18 55
-19 9 -7 -36 -84 -86 -146 -266 -334 -644 -480 -1066 -413 -236 38 -439 136
-592 289 -87 87 -166 190 -200 264 -15 31 -37 79 -50 106 -26 54 -84 274 -84
316 0 55 31 61 146 24z"/>
<path d="M5342 7478 c-31 -31 6 -88 56 -88 33 0 65 30 56 53 -3 9 -26 23 -52
31 -54 19 -46 18 -60 4z"/>
<path d="M5170 7415 c-27 -28 -32 -39 -24 -52 29 -46 67 -41 92 11 12 23 11
31 -2 52 -9 13 -20 24 -24 24 -5 0 -23 -16 -42 -35z"/>
<path d="M5280 7312 c-34 -35 -40 -84 -14 -113 13 -15 21 -16 37 -7 11 6 43
13 71 17 46 5 51 9 54 33 4 35 -42 86 -85 94 -27 5 -37 1 -63 -24z"/>
<path d="M4496 7128 c-37 -58 -32 -139 11 -162 36 -19 79 -3 90 32 13 41 0
122 -22 138 -28 21 -63 17 -79 -8z"/>
<path d="M4715 6360 c-32 -12 -79 -19 -128 -19 -89 -1 -100 -11 -70 -63 26
-45 72 -55 155 -32 99 27 120 27 192 5 94 -29 152 -27 257 9 l89 31 80 -25
c93 -30 112 -26 108 17 -3 27 -11 35 -63 61 -86 42 -155 46 -240 12 -81 -32
-126 -33 -221 -1 -87 29 -93 29 -159 5z"/>
<path d="M5300 6129 c-17 -39 -7 -57 46 -84 36 -18 62 -20 304 -23 258 -3 266
-3 288 18 27 26 28 56 3 70 -12 6 -115 10 -265 10 -222 0 -250 2 -296 20 -65
26 -65 26 -80 -11z"/>
<path d="M5044 6095 c-15 -23 -15 -27 0 -50 30 -46 126 -27 126 25 0 30 -28
50 -70 50 -31 0 -43 -5 -56 -25z"/>
<path d="M6093 7338 c-16 -21 -24 -78 -13 -99 32 -59 93 -33 92 40 -1 23 -6
49 -13 57 -14 17 -53 18 -66 2z"/>
<path d="M6248 7219 c-38 -22 -51 -146 -18 -179 46 -46 110 -10 110 63 0 102
-37 149 -92 116z"/>
<path d="M6061 7031 c-47 -47 -32 -143 22 -149 44 -5 67 22 67 80 0 75 -47
111 -89 69z"/>
<path d="M6456 5929 c-30 -35 -32 -49 -11 -89 29 -56 85 -66 134 -24 63 53 26
144 -58 144 -32 0 -44 -6 -65 -31z m94 -49 c0 -27 -3 -30 -30 -30 -27 0 -30 3
-30 30 0 27 3 30 30 30 27 0 30 -3 30 -30z"/>
<path d="M6500 5880 c0 -13 7 -20 20 -20 13 0 20 7 20 20 0 13 -7 20 -20 20
-13 0 -20 -7 -20 -20z"/>
<path d="M4483 5655 c-46 -33 -22 -75 42 -75 44 0 65 13 65 41 0 38 -71 60
-107 34z"/>
<path d="M6408 5659 c-19 -11 -23 -45 -9 -67 14 -22 101 -11 118 15 13 19 12
24 -6 42 -23 23 -74 28 -103 10z"/>
<path d="M7349 5411 c-36 -36 -37 -60 -3 -100 36 -43 82 -43 118 0 14 17 26
40 26 51 0 29 -53 78 -85 78 -16 0 -38 -12 -56 -29z m86 3 c23 -9 36 -49 26
-77 -5 -12 -20 -29 -34 -36 -38 -21 -77 6 -77 54 0 52 36 77 85 59z"/>
<path d="M7380 5356 c0 -48 15 -63 23 -23 l4 22 2 -22 c2 -40 28 -16 27 25 -2
32 -5 37 -29 40 -26 3 -27 1 -27 -42z"/>
<path d="M4895 5300 c-67 -14 -93 -28 -144 -75 -91 -85 -119 -211 -70 -312 54
-112 145 -173 258 -173 79 0 129 22 188 82 l42 43 -51 38 -51 38 -33 -32 c-25
-25 -44 -33 -81 -36 -90 -8 -148 45 -159 144 -7 66 18 111 79 141 63 32 115
24 162 -25 l34 -35 45 33 c26 18 46 38 46 44 0 20 -94 102 -131 113 -56 17
-92 20 -134 12z"/>
<path d="M7002 5295 c-67 -19 -84 -28 -134 -73 -63 -57 -83 -103 -83 -197 0
-63 5 -89 22 -120 30 -57 88 -111 150 -141 47 -23 63 -26 122 -22 157 11 271
132 271 288 0 80 -22 130 -81 187 -79 76 -174 104 -267 78z m100 -125 c141
-40 156 -230 22 -286 -104 -43 -214 34 -214 150 0 66 31 108 97 132 47 16 49
16 95 4z"/>
<path d="M3713 5288 c-4 -7 -9 -129 -10 -270 -2 -239 -1 -258 16 -270 14 -10
54 -12 162 -8 129 5 148 8 182 29 44 27 77 85 77 136 0 44 -13 72 -48 103 -18
16 -23 25 -14 29 20 8 42 59 42 98 0 58 -38 113 -98 144 -34 18 -298 25 -309
9z m263 -129 c19 -15 18 -54 -2 -73 -11 -11 -35 -16 -80 -16 l-64 0 0 56 0 56
66 -6 c37 -3 73 -11 80 -17z m5 -209 c12 -7 19 -21 19 -39 0 -36 -32 -51 -110
-51 l-60 0 0 50 0 50 66 0 c36 0 74 -5 85 -10z"/>
<path d="M4337 5243 c-14 -32 -45 -108 -70 -168 -24 -61 -64 -154 -87 -208
-51 -115 -47 -127 34 -127 l51 0 26 53 26 52 96 3 97 3 24 -56 25 -55 54 0
c88 0 88 7 16 167 -34 76 -85 194 -113 263 l-51 125 -51 3 -51 3 -26 -58z
m123 -272 c0 -3 -22 -4 -50 -3 -27 2 -50 6 -50 8 0 2 12 29 26 61 l25 58 25
-59 c13 -33 24 -62 24 -65z"/>
<path d="M5207 5294 c-13 -13 -8 -529 5 -542 7 -7 30 -12 53 -12 23 0 46 5 53
12 8 8 12 46 12 105 l0 93 90 0 90 0 0 -93 c0 -59 4 -97 12 -105 16 -16 100
-16 116 0 9 9 12 81 12 264 0 139 -3 259 -6 268 -8 20 -103 23 -122 4 -8 -8
-12 -48 -12 -116 l0 -104 -31 6 c-17 3 -58 6 -90 6 l-58 0 -3 108 -3 107 -55
3 c-31 2 -59 0 -63 -4z"/>
<path d="M5896 5292 c-2 -4 -34 -81 -71 -172 -37 -91 -87 -207 -111 -259 -25
-52 -42 -101 -40 -108 4 -10 22 -13 67 -11 66 3 64 2 95 71 l16 37 97 0 96 0
25 -53 25 -52 56 -3 c91 -5 92 4 21 161 -33 73 -81 184 -107 247 -65 159 -58
150 -115 150 -27 0 -51 -3 -54 -8z m85 -267 l27 -65 -54 0 c-30 0 -54 4 -54 9
0 16 43 121 49 121 3 0 18 -29 32 -65z"/>
<path d="M6397 5286 c-87 -32 -162 -104 -188 -183 -18 -56 -7 -163 24 -215 57
-97 148 -151 252 -151 191 0 324 197 259 385 -18 53 -102 140 -159 163 -43 19
-138 19 -188 1z m163 -135 c89 -64 93 -184 9 -255 -30 -26 -39 -28 -96 -24
-52 3 -68 9 -93 33 -38 36 -54 84 -48 147 4 35 12 57 30 74 52 53 143 64 198
25z"/>
<path d="M7201 4611 c-12 -12 -21 -25 -21 -29 0 -21 29 -44 55 -44 25 0 55 23
55 42 0 14 -26 38 -47 45 -15 4 -28 0 -42 -14z"/>
<path d="M3742 4604 c-42 -29 -22 -74 35 -74 54 0 68 64 17 84 -22 9 -27 8
-52 -10z"/>
<path d="M6454 4589 c-18 -20 -18 -21 1 -35 23 -17 47 -18 63 -2 16 16 15 23
-4 42 -21 21 -37 20 -60 -5z"/>
</g>
</svg>
